<?xml version="1.0" encoding="UTF-8"?>
<svg xmlns="http://www.w3.org/2000/svg" viewBox="0 0 168.6 158.31">
    <path fill="#f1ad00"
          d="M11.08,0H157.52c3.06,0,5.67,1.08,7.84,3.25,2.16,2.17,3.25,4.78,3.25,7.84V147.23c0,3.06-1.08,5.67-3.25,7.84-2.17,2.17-4.78,3.25-7.84,3.25H11.08c-3.06,0-5.67-1.08-7.84-3.25-2.17-2.16-3.25-4.77-3.25-7.84V11.08c0-3.06,1.08-5.67,3.25-7.84C5.41,1.08,8.02,0,11.08,0h0Z"/>
    <path fill="#ffffff"
          d="M118.32,83.93c1.93-1.49,2.73-5.01-.09-7.56L65.19,31.07c-3.87-2.99-9.41-2.99-13.46,.09-5.37,4.93-2.46,10.64,.35,13.11l41.86,35.89-42.48,34.04c-3.25,3.25-4.22,8.18-.7,12.23,4.05,4.13,10.03,3.78,14.25,.79l53.3-43.27h0Z"/>
</svg>