<?xml version="1.0" encoding="UTF-8"?>
<svg xmlns="http://www.w3.org/2000/svg" style="shape-rendering:geometricPrecision; text-rendering:geometricPrecision; image-rendering:optimizeQuality; fill-rule:evenodd; clip-rule:evenodd" viewBox="0 0 19895.64 5079.12">
  <path fill="#000000" d="M99.49 1120.76l440.35 0 0 3114.65 -440.35 0 0 -3114.65zm440.35 -1020.32l0 440.35 -440.35 0 0 -440.35 440.35 0zm1122.35 1460.67l0 2024.52c0,57.28 20.59,106.51 61.76,147.68 41.17,41.17 90.39,61.75 147.68,61.75l1138.46 0 0 440.35 -1138.46 0c-93.09,0 -179.01,-17.01 -257.77,-51.02 -78.76,-34.01 -146.78,-80.55 -204.06,-139.62 -57.28,-59.07 -102.93,-127.99 -136.94,-206.75 -34.01,-78.76 -51.02,-162.89 -51.02,-252.39l0 -3485.19 440.35 0 0 1020.32 1347.9 0 0 440.35 -1347.9 0zm4269.25 -440.35c89.5,0 174.52,17 255.08,51.01 80.55,34.01 150.36,80.55 209.43,139.63 59.07,59.07 105.61,127.98 139.62,206.74 34.01,78.77 51.02,162.9 51.02,252.4l0 1127.72 -2733.39 0 0 687.37c0,57.28 20.59,106.51 61.76,147.68 41.17,41.17 90.39,61.75 147.68,61.75l2523.95 0 0 440.35 -2523.95 0c-89.51,0 -173.64,-17.01 -252.4,-51.02 -78.76,-34.01 -147.68,-80.55 -206.75,-139.62 -59.07,-59.07 -105.61,-127.99 -139.62,-206.75 -34.01,-78.76 -51.02,-162.89 -51.02,-252.39l0 -1815.09c0,-89.5 17.01,-173.63 51.02,-252.4 34.01,-78.76 80.55,-147.67 139.62,-206.74 59.07,-59.08 127.99,-105.62 206.75,-139.63 78.76,-34.01 162.89,-51.01 252.4,-51.01l1868.8 0zm209.43 1337.15l0 -687.37c0,-57.28 -19.69,-106.51 -59.07,-147.68 -39.38,-41.17 -89.5,-61.75 -150.36,-61.75l-1868.8 0c-57.29,0 -106.51,20.58 -147.68,61.75 -41.17,41.17 -61.76,90.4 -61.76,147.68l0 687.37 2287.67 0zm3367.04 -1337.15l0 440.35 -1750.64 0c-57.29,0 -106.51,20.58 -147.68,61.75 -41.17,41.17 -61.76,90.4 -61.76,147.68l0 2464.87 -440.35 0 0 -2464.87c0,-89.5 17.01,-173.63 51.02,-252.4 34.01,-78.76 80.55,-147.67 139.62,-206.74 59.07,-59.08 127.99,-105.62 206.75,-139.63 78.76,-34.01 162.89,-51.01 252.4,-51.01l1750.64 0zm349.06 0l440.36 0 0 3114.65 -440.36 0 0 -3114.65zm440.36 -1020.32l0 440.35 -440.36 0 0 -440.35 440.36 0zm3007.26 1020.32c89.5,0 174.52,17 255.08,51.01 80.55,34.01 150.36,80.55 209.43,139.63 59.07,59.07 105.61,127.98 139.63,206.74 34.01,78.77 51.02,162.9 51.02,252.4l0 2464.87 -2523.95 0c-89.51,0 -173.64,-17.01 -252.4,-51.02 -78.76,-34.01 -147.68,-80.55 -206.75,-139.62 -59.07,-59.07 -105.61,-127.99 -139.62,-206.75 -34.01,-78.76 -51.02,-162.89 -51.02,-252.39l0 -1127.72 2728.01 0 0 -687.37c0,-57.28 -19.69,-106.51 -59.07,-147.68 -39.38,-41.17 -89.5,-61.75 -150.36,-61.75l-2518.58 0 0 -440.35 2518.58 0zm209.43 1777.5l-2287.66 0 0 687.37c0,57.28 20.59,106.51 61.76,147.68 41.17,41.17 90.39,61.75 147.68,61.75l2078.22 0 0 -896.8z"/>
  <path fill="#f1ad00" d="M15215.03 376.51l4257.87 0c88.94,0 164.89,31.43 227.85,94.38 62.85,62.96 94.38,138.9 94.38,227.85l0 3958.59c0,89.05 -31.53,164.99 -94.38,227.85 -62.96,62.95 -138.91,94.38 -227.85,94.38l-4257.87 0c-88.94,0 -164.89,-31.43 -227.84,-94.38 -62.96,-62.86 -94.39,-138.8 -94.39,-227.85l0 -3958.59c0,-88.95 31.43,-164.89 94.39,-227.85 62.95,-62.95 138.9,-94.38 227.84,-94.38z"/>
  <path fill="#ffffff" d="M18332.97 2816.76c56.21,-43.42 79.27,-145.76 -2.62,-219.89l-1542.04 -1317.02c-112.51,-86.92 -273.58,-86.92 -391.23,2.52 -156.02,143.24 -71.61,309.44 10.28,381.06l1217.19 1043.43 -1235.12 989.65c-94.59,94.59 -122.79,237.82 -20.45,355.47 117.65,120.17 291.51,109.89 414.29,22.97l1549.7 -1258.19z"/>
</svg>
